<?xml version="1.0" encoding="UTF-8" standalone="no"?>
<svg
   viewBox="0 0 640 512"
   version="1.1"
   id="svg826"
   sodipodi:docname="tree-city-solid.svg"
   inkscape:version="1.1 (c4e8f9e, 2021-05-24)"
   xmlns:inkscape="http://www.inkscape.org/namespaces/inkscape"
   xmlns:sodipodi="http://sodipodi.sourceforge.net/DTD/sodipodi-0.dtd"
   xmlns="http://www.w3.org/2000/svg"
   xmlns:svg="http://www.w3.org/2000/svg">
  <defs
     id="defs830" />
  <sodipodi:namedview
     id="namedview828"
     pagecolor="#ffffff"
     bordercolor="#666666"
     borderopacity="1.0"
     inkscape:pageshadow="2"
     inkscape:pageopacity="0.0"
     inkscape:pagecheckerboard="0"
     showgrid="false"
     inkscape:zoom="0.8390625"
     inkscape:cx="320"
     inkscape:cy="256.23836"
     inkscape:window-width="1312"
     inkscape:window-height="1052"
     inkscape:window-x="0"
     inkscape:window-y="400"
     inkscape:window-maximized="0"
     inkscape:current-layer="svg826" />
  <!--! Font Awesome Pro 6.4.2 by @fontawesome - https://fontawesome.com License - https://fontawesome.com/license (Commercial License) Copyright 2023 Fonticons, Inc. -->
  <path
     d="M288 48c0-26.5 21.5-48 48-48h96c26.5 0 48 21.5 48 48V192h40V120c0-13.3 10.7-24 24-24s24 10.7 24 24v72h24c26.5 0 48 21.5 48 48V464c0 26.5-21.5 48-48 48H432 336c-26.5 0-48-21.5-48-48V48zm64 32v32c0 8.8 7.2 16 16 16h32c8.8 0 16-7.2 16-16V80c0-8.8-7.2-16-16-16H368c-8.8 0-16 7.2-16 16zm16 80c-8.8 0-16 7.2-16 16v32c0 8.8 7.2 16 16 16h32c8.8 0 16-7.2 16-16V176c0-8.8-7.2-16-16-16H368zM352 272v32c0 8.8 7.2 16 16 16h32c8.8 0 16-7.2 16-16V272c0-8.8-7.2-16-16-16H368c-8.8 0-16 7.2-16 16zm176-16c-8.8 0-16 7.2-16 16v32c0 8.8 7.2 16 16 16h32c8.8 0 16-7.2 16-16V272c0-8.8-7.2-16-16-16H528zM512 368v32c0 8.8 7.2 16 16 16h32c8.8 0 16-7.2 16-16V368c0-8.8-7.2-16-16-16H528c-8.8 0-16 7.2-16 16zM224 160c0 6-1 11-2 16c20 14 34 38 34 64c0 45-36 80-80 80H160V480c0 18-15 32-32 32c-18 0-32-14-32-32V320H80c-45 0-80-35-80-80c0-26 13-50 33-64c-1-5-1-10-1-16c0-53 42-96 96-96c53 0 96 43 96 96z"
     id="path824"
     style="fill:#ffffff" />
</svg>
